:SAMPLES-PER-SECOND 24
:FULLY-SPECIFIED
:DEGREES
450
root  2.10399 37.9295 30.8986 7.56781 -46.4801 -3.60864
RightUpLeg  -12.9032 2.32969 -2.04151
RightLeg  35.4935 1.41261 0.825103
RightFoot  -24.0035 -0.0288657 1.20569
RightToes  -2.08645e-008 3.77894e-005 6.81332e-007
Spine  10.0223 0.159328 1.49084
Spine1  7.2944 -0.628417 3.13484
HEad  -35.298 35.6923 -17.7944
LeftShoulder1  7.15055 -13.0604 -37.0945
LeftArm  7.24254 11.0044 -26.1458
LeftForeArm  107.976 -80.3563 -96.8661
LeftHand  -0.682306 -2.16054 10.6849
RightShoulder  3.93605 6.70362 32.6754
RightArm  16.3456 -22.5771 31.376
RightForeArm  122.761 80.2552 106.622
RightHand  -0.873815 8.22923 -7.79733
LeftUpLeg  -29.7734 0.848916 10.1122
LeftLeg  31.3272 -2.87334 -1.53568
LeftFoot  -3.83485 0.656412 -9.64119
LeftToes  1.24767e-006 1.47042e-008 1.32732e-009
451
root  1.91724 39.1202 31.814 8.95355 -48.4492 -3.89374
RightUpLeg  -11.0005 1.46631 -3.78038
RightLeg  29.5556 5.87358 3.37683
RightFoot  -16.8683 0.0950535 4.67368
RightToes  -2.08645e-008 3.77894e-005 6.81332e-007
Spine  6.69813 0.373605 2.96558
Spine1  7.23328 0.174267 0.801446
HEad  -28.5987 37.5156 -15.0941
LeftShoulder1  6.91403 -12.732 -36.5291
LeftArm  8.12624 19.955 -26.1262
LeftForeArm  141.628 -77.3956 -131.136
LeftHand  -0.559395 -1.94647 9.04638
RightShoulder  3.98166 6.73876 32.9876
RightArm  18.6056 -27.1681 28.9991
RightForeArm  144.148 78.0308 128.869
RightHand  -0.742799 8.47749 -6.57799
LeftUpLeg  -27.0593 5.00061 9.04789
LeftLeg  26.6854 -5.92975 -2.88092
LeftFoot  1.34036 1.10307 -9.90385
LeftToes  1.24767e-006 1.47042e-008 1.32732e-009
452
root  1.77429 40.0826 32.4181 9.14258 -49.7951 -3.30743
RightUpLeg  -10.3481 0.883104 -5.37905
RightLeg  26.6849 6.93539 3.56414
RightFoot  -11.8405 -0.0275071 11.1359
RightToes  -2.08645e-008 3.77894e-005 6.81332e-007
Spine  5.30279 1.11073 2.96315
Spine1  6.69761 1.27268 -0.782641
HEad  -24.2255 37.1399 -13.1841
LeftShoulder1  6.63644 -12.4223 -35.6383
LeftArm  10.0464 27.106 -25.569
LeftForeArm  156.356 -73.5224 -145.337
LeftHand  -0.485159 -2.12465 7.69428
RightShoulder  4.10635 6.86798 33.7034
RightArm  20.1682 -30.9608 26.3099
RightForeArm  154.115 74.7896 141.974
RightHand  -0.721374 8.18331 -6.52642
LeftUpLeg  -25.5621 11.708 7.69204
LeftLeg  23.9016 -12.2847 -5.56851
LeftFoot  6.57033 2.38239 -15.1735
LeftToes  1.24767e-006 1.47042e-008 1.32732e-009
453
root  1.74453 40.5406 32.8813 9.39606 -50.0498 -2.89008
RightUpLeg  -10.654 0.0346604 -6.12767
RightLeg  25.3533 2.85561 1.25331
RightFoot  -10.653 -0.148409 12.8548
RightToes  -2.08645e-008 3.77894e-005 6.81332e-007
Spine  4.96339 1.26752 2.89326
Spine1  6.18072 1.62814 -1.66155
HEad  -23.9322 36.1372 -13.4547
LeftShoulder1  6.45268 -12.2154 -35.0309
LeftArm  11.4966 32.7971 -24.3534
LeftForeArm  163.793 -69.2714 -153.525
LeftHand  -0.449673 -2.117 7.15193
RightShoulder  4.11152 6.89079 33.6673
RightArm  21.167 -32.5215 25.4155
RightForeArm  159.645 72.2647 148.336
RightHand  -0.764553 8.10315 -6.92952
LeftUpLeg  -24.9311 14.7234 7.48971
LeftLeg  22.4801 -16.3197 -6.97215
LeftFoot  7.24557 3.73283 -22.8621
LeftToes  1.24767e-006 1.47042e-008 1.32732e-009
454
root  1.85206 40.4037 33.3397 10.1798 -49.2279 -2.79877
RightUpLeg  -11.1665 0.49772 -6.84511
RightLeg  23.3543 -1.56142 -0.958091
RightFoot  -10.3601 -0.154574 9.78948
RightToes  -2.08645e-008 3.77894e-005 6.81332e-007
Spine  5.61247 0.967799 3.7576
Spine1  5.01432 1.55577 -2.6187
HEad  -26.2819 34.2403 -14.8285
LeftShoulder1  6.2737 -12.0355 -34.3641
LeftArm  11.5178 36.4844 -24.283
LeftForeArm  167.425 -66.5171 -157.209
LeftHand  -0.446843 -2.12868 7.09804
RightShoulder  3.96319 6.74796 32.7733
RightArm  20.9549 -33.3829 26.1061
RightForeArm  163.89 70.7897 151.406
RightHand  -0.652217 8.42215 -5.84533
LeftUpLeg  -25.4908 9.14953 8.80583
LeftLeg  23.4089 -16.5802 -7.40117
LeftFoot  3.91241 3.22177 -23.9259
LeftToes  1.24767e-006 1.47042e-008 1.32732e-009
455
root  2.01519 39.5971 33.7256 10.6312 -48.3239 -2.38385
RightUpLeg  -12.2472 3.56241 -8.27392
RightLeg  23.7255 -3.52489 -1.91668
RightFoot  -12.2465 -0.00686566 9.04171
RightToes  -2.08645e-008 3.77894e-005 6.81332e-007
Spine  7.53401 1.12441 4.20162
Spine1  3.05411 1.89609 -3.3323
HEad  -29.8217 30.9333 -16.3419
LeftShoulder1  6.19523 -12.0364 -33.8642
LeftArm  10.0019 37.418 -25.4591
LeftForeArm  168.871 -65.6225 -158.263
LeftHand  -0.453221 -2.26847 7.07315
RightShoulder  3.86334 6.64368 32.1857
RightArm  20.2245 -34.1264 26.1472
RightForeArm  164.254 69.5697 153.223
RightHand  -0.668208 8.65197 -5.8879
LeftUpLeg  -28.1203 1.88122 9.36758
LeftLeg  28.474 -14.548 -8.06292
LeftFoot  -1.029 1.50611 -16.3931
LeftToes  1.24767e-006 1.47042e-008 1.32732e-009
456
root  2.18772 38.4423 34.0305 10.7735 -48.2348 -2.1394
RightUpLeg  -14.2194 5.9573 -9.33323
RightLeg  28.2232 -4.25982 -2.71136
RightFoot  -17.7524 0.455185 10.2347
RightToes  -2.08645e-008 3.77894e-005 6.81332e-007
Spine  8.96468 1.66871 4.12995
Spine1  2.73978 2.63975 -3.86365
HEad  -33.9154 27.723 -17.8228
LeftShoulder1  6.68924 -12.5837 -35.5405
LeftArm  7.00952 33.9569 -25.4255
LeftForeArm  168.192 -66.1616 -157.673
LeftHand  -0.525038 -1.79228 8.68244
RightShoulder  3.86761 6.63318 32.2672
RightArm  18.9426 -31.4118 26.1854
RightForeArm  160.985 70.7142 151.126
RightHand  -0.942234 8.85798 -8.02359
LeftUpLeg  -31.1784 -1.69101 8.48673
LeftLeg  34.589 -9.39411 -6.50847
LeftFoot  -7.03847 0.372941 -8.6735
LeftToes  1.24767e-006 1.47042e-008 1.32732e-009
457
root  2.37895 37.6108 34.3776 10.7295 -48.7257 -2.7627
RightUpLeg  -15.395 6.41777 -9.33479
RightLeg  32.765 -5.11467 -3.78377
RightFoot  -22.3509 0.825622 10.1365
RightToes  -2.08645e-008 3.77894e-005 6.81332e-007
Spine  8.78866 2.01177 4.52977
Spine1  4.73064 3.15605 -4.06408
HEad  -36.211 26.2147 -17.6356
LeftShoulder1  7.6393 -13.4491 -38.904
LeftArm  2.61606 26.6961 -24.7243
LeftForeArm  166.06 -69.0608 -154.098
LeftHand  -0.65284 -0.930206 12.1284
RightShoulder  3.88233 6.60265 32.5296
RightArm  15.8936 -25.467 28.157
RightForeArm  155.051 74.9459 141.634
RightHand  -0.972277 9.09228 -8.153
LeftUpLeg  -32.1254 -5.26057 8.15764
LeftLeg  38.0632 -3.49413 -2.53389
LeftFoot  -12.3805 0.0101034 -6.60556
LeftToes  1.24767e-006 1.47042e-008 1.32732e-009
458
root  2.50404 37.6158 34.803 10.2556 -49.617 -3.59503
RightUpLeg  -14.1409 6.77081 -9.34414
RightLeg  32.5467 -4.8293 -3.55571
RightFoot  -21.8331 0.798955 10.2945
RightToes  -2.08645e-008 3.77894e-005 6.81332e-007
Spine  7.98856 2.1407 4.90932
Spine1  6.1278 3.23253 -3.6946
HEad  -34.6898 26.7639 -15.2451
LeftShoulder1  8.09492 -13.8341 -40.4589
LeftArm  -1.10742 20.8461 -26.3778
LeftForeArm  162.491 -71.9829 -149.278
LeftHand  -0.742514 -0.640026 14.3988
RightShoulder  3.94666 6.6321 33.0529
RightArm  12.7726 -22.2523 30.9994
RightForeArm  148.912 77.3884 132.767
RightHand  -0.877152 9.3268 -7.28656
LeftUpLeg  -29.9559 -9.21115 8.34142
LeftLeg  37.2314 -0.0895806 0.305582
LeftFoot  -13.6293 -0.067953 -7.47634
LeftToes  1.24767e-006 1.47042e-008 1.32732e-009
